<svg width="22" height="30" viewBox="0 0 22 30" fill="none" xmlns="http://www.w3.org/2000/svg">
<g clip-path="url(#clip0_75_1086)">
<path d="M0 24.1878L0.181453 23.9338L8.76299 7.65059L8.78111 7.47819L4.99829 0.372466C4.6812 -0.222748 3.78889 -0.0722348 3.68496 0.59409L0 24.1878Z" fill="#FFC24A"/>
<path d="M0.106934 23.9943L0.244113 23.7267L8.73582 7.61402L4.96232 0.479408C4.64873 -0.109566 3.85232 0.0406046 3.74941 0.699921L0.106934 23.9943Z" fill="#FFA712"/>
<g filter="url(#filter0_i_75_1086)">
<path d="M0.106934 23.9943L0.244113 23.7267L8.73582 7.61402L4.96232 0.479408C4.64873 -0.109566 3.85232 0.0406046 3.74941 0.699921L0.106934 23.9943Z" fill="black"/>
</g>
<path d="M11.5388 12.853L14.3555 9.96834L11.538 4.58971C11.2705 4.08057 10.5238 4.07903 10.2592 4.58971L8.75378 7.4604V7.70484L11.5387 12.853H11.5388Z" fill="#F4BD62"/>
<path d="M11.4886 12.7328L14.227 9.9284L11.4886 4.71413C11.2286 4.21917 10.5969 4.16729 10.3397 4.6637L8.82643 7.579L8.78113 7.72806L11.4886 12.7328V12.7328Z" fill="#FFA50E"/>
<g filter="url(#filter1_i_75_1086)">
<path d="M11.4886 12.7328L14.227 9.9284L11.4886 4.71413C11.2286 4.21917 10.5969 4.16729 10.3397 4.6637L8.82643 7.579L8.78113 7.72806L11.4886 12.7328V12.7328Z" fill="black"/>
</g>
<path d="M0 24.1878L0.0822222 24.1051L0.381026 23.9837L11.362 13.0435L11.5011 12.6648L8.7618 7.44482L0 24.1878Z" fill="#F6820C"/>
<path d="M11.8907 29.7052L21.8287 24.1627L18.9908 6.6845C18.902 6.13767 18.2311 5.92151 17.8397 6.31356L0 24.1878L9.88103 29.7048C10.1882 29.8762 10.534 29.9663 10.8858 29.9664C11.2376 29.9664 11.5835 29.8765 11.8907 29.7052Z" fill="#FDE068"/>
<path d="M21.7396 24.1161L18.9232 6.77067C18.8352 6.22793 18.2772 6.0034 17.8888 6.39255L0.110229 24.1537L9.88279 29.616C10.1876 29.7861 10.5308 29.8755 10.8799 29.8756C11.229 29.8757 11.5723 29.7865 11.8772 29.6165L21.7397 24.1161L21.7396 24.1161Z" fill="#FCCA3F"/>
<path d="M11.8908 29.5418C11.5836 29.7132 11.2377 29.8031 10.8859 29.803C10.5342 29.8029 10.1883 29.7129 9.88118 29.5414L0.0797313 24.1038L0.000244141 24.1878L9.88118 29.7047C10.1883 29.8762 10.5342 29.9663 10.886 29.9663C11.2377 29.9664 11.5836 29.8765 11.8908 29.7052L21.8289 24.1627L21.8045 24.0129L11.8908 29.5419L11.8908 29.5418Z" fill="#EEAB37"/>
</g>
<defs>
<filter id="filter0_i_75_1086" x="0.106934" y="0.111328" width="8.62891" height="23.8831" filterUnits="userSpaceOnUse" color-interpolation-filters="sRGB">
<feFlood flood-opacity="0" result="BackgroundImageFix"/>
<feBlend mode="normal" in="SourceGraphic" in2="BackgroundImageFix" result="shape"/>
<feColorMatrix in="SourceAlpha" type="matrix" values="0 0 0 0 0 0 0 0 0 0 0 0 0 0 0 0 0 0 127 0" result="hardAlpha"/>
<feOffset/>
<feGaussianBlur stdDeviation="1.49573"/>
<feComposite in2="hardAlpha" operator="arithmetic" k2="-1" k3="1"/>
<feColorMatrix type="matrix" values="0 0 0 0 0 0 0 0 0 0 0 0 0 0 0 0 0 0 0.06 0"/>
<feBlend mode="normal" in2="shape" result="effect1_innerShadow_75_1086"/>
</filter>
<filter id="filter1_i_75_1086" x="8.78113" y="3.71787" width="5.53139" height="9.01504" filterUnits="userSpaceOnUse" color-interpolation-filters="sRGB">
<feFlood flood-opacity="0" result="BackgroundImageFix"/>
<feBlend mode="normal" in="SourceGraphic" in2="BackgroundImageFix" result="shape"/>
<feColorMatrix in="SourceAlpha" type="matrix" values="0 0 0 0 0 0 0 0 0 0 0 0 0 0 0 0 0 0 127 0" result="hardAlpha"/>
<feOffset dx="0.0854701" dy="-0.769231"/>
<feGaussianBlur stdDeviation="0.299145"/>
<feComposite in2="hardAlpha" operator="arithmetic" k2="-1" k3="1"/>
<feColorMatrix type="matrix" values="0 0 0 0 0 0 0 0 0 0 0 0 0 0 0 0 0 0 0.09 0"/>
<feBlend mode="normal" in2="shape" result="effect1_innerShadow_75_1086"/>
</filter>
<clipPath id="clip0_75_1086">
<rect width="21.8803" height="30" fill="white"/>
</clipPath>
</defs>
</svg>
